<?xml version="1.0" encoding="UTF-8" standalone="no"?>
<svg
viewBox="-6 -6 1012 1012" version="1.1"
xmlns="http://www.w3.org/2000/svg">
<circle
style="fill:#ffeeaa;stroke:#000000;stroke-width:4;stroke-miterlimit:4;stroke-dasharray:none;stroke-opacity:1"
cx="500"
cy="500"
r="500"/>
<line x1="0.0000" y1="500.0000" x2="60.0000" y2="500.0000" stroke="black" stroke-width="6"/>
<line x1="17.0371" y1="370.5905" x2="36.3556" y2="375.7669" stroke="black" stroke-width="4"/>
<line x1="66.9873" y1="250.0000" x2="84.3078" y2="260.0000" stroke="black" stroke-width="4"/>
<line x1="146.4466" y1="146.4466" x2="174.7309" y2="174.7309" stroke="black" stroke-width="5"/>
<line x1="250.0000" y1="66.9873" x2="260.0000" y2="84.3078" stroke="black" stroke-width="4"/>
<line x1="370.5905" y1="17.0371" x2="375.7669" y2="36.3556" stroke="black" stroke-width="4"/>
<line x1="500.0000" y1="0.0000" x2="500.0000" y2="60.0000" stroke="black" stroke-width="6"/>
<line x1="629.4095" y1="17.0371" x2="624.2331" y2="36.3556" stroke="black" stroke-width="4"/>
<line x1="750.0000" y1="66.9873" x2="740.0000" y2="84.3078" stroke="black" stroke-width="4"/>
<line x1="853.5534" y1="146.4466" x2="825.2691" y2="174.7309" stroke="black" stroke-width="5"/>
<line x1="933.0127" y1="250.0000" x2="915.6922" y2="260.0000" stroke="black" stroke-width="4"/>
<line x1="982.9629" y1="370.5905" x2="963.6444" y2="375.7669" stroke="black" stroke-width="4"/>
<line x1="1000.0000" y1="500.0000" x2="940.0000" y2="500.0000" stroke="black" stroke-width="6"/>
<line x1="982.9629" y1="629.4095" x2="963.6444" y2="624.2331" stroke="black" stroke-width="4"/>
<line x1="933.0127" y1="750.0000" x2="915.6922" y2="740.0000" stroke="black" stroke-width="4"/>
<line x1="853.5534" y1="853.5534" x2="825.2691" y2="825.2691" stroke="black" stroke-width="5"/>
<line x1="750.0000" y1="933.0127" x2="740.0000" y2="915.6922" stroke="black" stroke-width="4"/>
<line x1="629.4095" y1="982.9629" x2="624.2331" y2="963.6444" stroke="black" stroke-width="4"/>
<line x1="500.0000" y1="1000.0000" x2="500.0000" y2="940.0000" stroke="black" stroke-width="6"/>
<line x1="370.5905" y1="982.9629" x2="375.7669" y2="963.6444" stroke="black" stroke-width="4"/>
<line x1="250.0000" y1="933.0127" x2="260.0000" y2="915.6922" stroke="black" stroke-width="4"/>
<line x1="146.4466" y1="853.5534" x2="174.7309" y2="825.2691" stroke="black" stroke-width="5"/>
<line x1="66.9873" y1="750.0000" x2="84.3078" y2="740.0000" stroke="black" stroke-width="4"/>
<line x1="17.0371" y1="629.4095" x2="36.3556" y2="624.2331" stroke="black" stroke-width="4"/>
</svg>
